HIERARCHY
ROOT Hips
{
	OFFSET 0.000000 0.000000 0.000000
	CHANNELS 6 Xposition Yposition Zposition Zrotation Xrotation Yrotation
	JOINT Spine
	{
		OFFSET 0.000000 0.000000 0.072775
		CHANNELS 3 Zrotation Xrotation Yrotation
		JOINT Spine1
		{
			OFFSET 0.000000 0.000000 0.195886
			CHANNELS 3 Zrotation Xrotation Yrotation
			JOINT Neck
			{
				OFFSET 0.000000 -0.017735 0.195082
				CHANNELS 3 Zrotation Xrotation Yrotation
				JOINT Head
				{
					OFFSET 0.000000 0.017750 0.124250
					CHANNELS 3 Zrotation Xrotation Yrotation
					End Site
					{
						OFFSET 0.000000 0.000000 0.177500
					}
				}
			}
			JOINT LeftShoulder
			{
				OFFSET 0.035772 0.000787 0.183979
				CHANNELS 3 Zrotation Xrotation Yrotation
				JOINT LeftArm
				{
					OFFSET 0.089258 0.000000 0.000000
					CHANNELS 3 Zrotation Xrotation Yrotation
					JOINT LeftForeArm
					{
						OFFSET 0.285064 0.000000 0.000000
						CHANNELS 3 Zrotation Xrotation Yrotation
						JOINT LeftHand
						{
							OFFSET 0.227012 0.000000 0.000000
							CHANNELS 3 Zrotation Xrotation Yrotation
							JOINT LeftHandThumb1
							{
								OFFSET 0.022188 -0.044375 -0.013313
								CHANNELS 3 Zrotation Xrotation Yrotation
								JOINT LeftHandThumb2
								{
									OFFSET 0.026625 0.000000 0.000000
									CHANNELS 3 Zrotation Xrotation Yrotation
									JOINT LeftHandThumb3
									{
										OFFSET 0.026625 0.000000 0.000000
										CHANNELS 3 Zrotation Xrotation Yrotation
										End Site
										{
											OFFSET 0.023630 0.000000 0.000000
										}
									}
								}
							}
							JOINT LeftHandIndex1
							{
								OFFSET 0.079875 -0.031063 0.000000
								CHANNELS 3 Zrotation Xrotation Yrotation
								JOINT LeftHandIndex2
								{
									OFFSET 0.044375 0.000000 0.000000
									CHANNELS 3 Zrotation Xrotation Yrotation
									JOINT LeftHandIndex3
									{
										OFFSET 0.022188 0.000000 0.000000
										CHANNELS 3 Zrotation Xrotation Yrotation
										End Site
										{
											OFFSET 0.019691 0.000000 0.000000
										}
									}
								}
							}
							JOINT LeftHandMiddle1
							{
								OFFSET 0.079875 -0.010295 0.000000
								CHANNELS 3 Zrotation Xrotation Yrotation
								JOINT LeftHandMiddle2
								{
									OFFSET 0.048813 0.000000 0.000000
									CHANNELS 3 Zrotation Xrotation Yrotation
									JOINT LeftHandMiddle3
									{
										OFFSET 0.026625 0.000000 0.000000
										CHANNELS 3 Zrotation Xrotation Yrotation
										End Site
										{
											OFFSET 0.023630 0.000000 0.000000
										}
									}
								}
							}
							JOINT LeftHandRing1
							{
								OFFSET 0.075438 0.010295 0.000000
								CHANNELS 3 Zrotation Xrotation Yrotation
								JOINT LeftHandRing2
								{
									OFFSET 0.044375 0.000000 0.000000
									CHANNELS 3 Zrotation Xrotation Yrotation
									JOINT LeftHandRing3
									{
										OFFSET 0.022188 0.000000 0.000000
										CHANNELS 3 Zrotation Xrotation Yrotation
										End Site
										{
											OFFSET 0.019691 0.000000 0.000000
										}
									}
								}
							}
							JOINT LeftHandPinky1
							{
								OFFSET 0.071000 0.031063 0.000000
								CHANNELS 3 Zrotation Xrotation Yrotation
								JOINT LeftHandPinky2
								{
									OFFSET 0.035500 0.000000 0.000000
									CHANNELS 3 Zrotation Xrotation Yrotation
									JOINT LeftHandPinky3
									{
										OFFSET 0.017750 0.000000 0.000000
										CHANNELS 3 Zrotation Xrotation Yrotation
										End Site
										{
											OFFSET 0.015753 0.000000 0.000000
										}
									}
								}
							}
						}
					}
				}
			}
			JOINT RightShoulder
			{
				OFFSET -0.035163 0.000787 0.183979
				CHANNELS 3 Zrotation Xrotation Yrotation
				JOINT RightArm
				{
					OFFSET -0.089258 0.000000 0.000000
					CHANNELS 3 Zrotation Xrotation Yrotation
					JOINT RightForeArm
					{
						OFFSET -0.285064 0.000000 0.000000
						CHANNELS 3 Zrotation Xrotation Yrotation
						JOINT RightHand
						{
							OFFSET -0.227012 0.000000 0.000000
							CHANNELS 3 Zrotation Xrotation Yrotation
							JOINT RightHandThumb1
							{
								OFFSET -0.022188 -0.044375 -0.013313
								CHANNELS 3 Zrotation Xrotation Yrotation
								JOINT RightHandThumb2
								{
									OFFSET -0.026625 0.000000 0.000000
									CHANNELS 3 Zrotation Xrotation Yrotation
									JOINT RightHandThumb3
									{
										OFFSET -0.026625 0.000000 0.000000
										CHANNELS 3 Zrotation Xrotation Yrotation
										End Site
										{
											OFFSET -0.023630 0.000000 0.000000
										}
									}
								}
							}
							JOINT RightHandIndex1
							{
								OFFSET -0.079875 -0.031063 0.000000
								CHANNELS 3 Zrotation Xrotation Yrotation
								JOINT RightHandIndex2
								{
									OFFSET -0.044375 0.000000 0.000000
									CHANNELS 3 Zrotation Xrotation Yrotation
									JOINT RightHandIndex3
									{
										OFFSET -0.022188 0.000000 0.000000
										CHANNELS 3 Zrotation Xrotation Yrotation
										End Site
										{
											OFFSET -0.019691 0.000000 0.000000
										}
									}
								}
							}
							JOINT RightHandMiddle1
							{
								OFFSET -0.079875 -0.010295 0.000000
								CHANNELS 3 Zrotation Xrotation Yrotation
								JOINT RightHandMiddle2
								{
									OFFSET -0.048813 0.000000 0.000000
									CHANNELS 3 Zrotation Xrotation Yrotation
									JOINT RightHandMiddle3
									{
										OFFSET -0.026625 0.000000 0.000000
										CHANNELS 3 Zrotation Xrotation Yrotation
										End Site
										{
											OFFSET -0.023630 0.000000 0.000000
										}
									}
								}
							}
							JOINT RightHandRing1
							{
								OFFSET -0.075438 0.010295 0.000000
								CHANNELS 3 Zrotation Xrotation Yrotation
								JOINT RightHandRing2
								{
									OFFSET -0.044375 0.000000 0.000000
									CHANNELS 3 Zrotation Xrotation Yrotation
									JOINT RightHandRing3
									{
										OFFSET -0.022188 0.000000 0.000000
										CHANNELS 3 Zrotation Xrotation Yrotation
										End Site
										{
											OFFSET -0.019691 0.000000 0.000000
										}
									}
								}
							}
							JOINT RightHandPinky1
							{
								OFFSET -0.071000 0.031063 0.000000
								CHANNELS 3 Zrotation Xrotation Yrotation
								JOINT RightHandPinky2
								{
									OFFSET -0.035500 0.000000 0.000000
									CHANNELS 3 Zrotation Xrotation Yrotation
									JOINT RightHandPinky3
									{
										OFFSET -0.017750 0.000000 0.000000
										CHANNELS 3 Zrotation Xrotation Yrotation
										End Site
										{
											OFFSET -0.015753 0.000000 0.000000
										}
									}
								}
							}
						}
					}
				}
			}
		}
	}
	JOINT LeftUpLeg
	{
		OFFSET 0.088750 0.000000 0.000000
		CHANNELS 3 Zrotation Xrotation Yrotation
		JOINT LeftLeg
		{
			OFFSET 0.000000 0.000000 -0.379026
			CHANNELS 3 Zrotation Xrotation Yrotation
			JOINT LeftFoot
			{
				OFFSET 0.000000 0.000000 -0.385721
				CHANNELS 3 Zrotation Xrotation Yrotation
				JOINT LeftToeBase
				{
					OFFSET 0.000000 -0.133125 -0.057688
					CHANNELS 3 Zrotation Xrotation Yrotation
					End Site
					{
						OFFSET 0.000000 -0.035500 0.000000
					}
				}
			}
		}
	}
	JOINT RightUpLeg
	{
		OFFSET -0.088750 0.000000 0.000000
		CHANNELS 3 Zrotation Xrotation Yrotation
		JOINT RightLeg
		{
			OFFSET 0.000000 0.000000 -0.379026
			CHANNELS 3 Zrotation Xrotation Yrotation
			JOINT RightFoot
			{
				OFFSET 0.000000 0.000000 -0.385721
				CHANNELS 3 Zrotation Xrotation Yrotation
				JOINT RightToeBase
				{
					OFFSET 0.000000 -0.133125 -0.057688
					CHANNELS 3 Zrotation Xrotation Yrotation
					End Site
					{
						OFFSET 0.000000 -0.035500 0.000000
					}
				}
			}
		}
	}
}
MOTION
Frames: 5
Frame Time: 0.041667
2.556608 -1.188877 0.837899 -3.282484 -1.196785 0.141686 0.713879 -6.486729 -1.239982 0.091622 5.914429 3.286606 3.733538 6.481361 -6.000785 1.852945 -2.905419 7.295984 -5.454835 2.024654 -17.738568 1.732252 -4.377318 21.220686 -0.341853 -1.784860 -1.576470 -7.172674 -11.249514 3.410937 9.627528 6.028827 -1.231738 5.835874 0.000002 -0.000002 11.671747 -0.000002 -0.000000 -0.000004 -0.000001 -15.315806 0.000001 -0.000003 0.000000 0.000000 -0.000002 -0.000000 -0.000003 -0.000002 -9.170513 0.000001 -0.000003 2.182158 0.000002 -0.000000 1.091079 -0.000002 -0.000001 -3.025216 0.000000 -0.000000 4.364315 0.000002 0.000000 2.182159 -0.000001 0.000000 3.306301 0.000000 -0.000000 6.612597 -0.000001 -0.000002 3.306303 -2.231331 1.073131 11.674822 2.630961 -0.652655 -9.934288 -1.548453 3.994663 0.816323 -8.362395 -18.821315 -12.369870 -0.000003 -0.000003 0.000001 -0.000002 -0.000001 0.000000 -0.000001 -0.000001 0.000000 -0.000003 -0.000003 0.000001 0.000000 0.000000 -0.000000 -0.000000 -0.000001 -0.000000 -0.000005 -0.000002 -8.543513 -0.000002 -0.000003 -17.087030 -0.000002 -0.000001 -8.543510 -0.000006 -0.000003 -17.087019 -0.000005 -0.000008 -34.174039 -0.000003 -0.000003 -17.087030 -0.000006 -0.000006 -25.889429 -0.000007 -0.000007 -51.778834 -0.000001 -0.000003 -25.889432 -7.998683 6.134963 -6.844768 -4.686002 5.854776 2.737712 12.526640 -8.882454 5.601576 -1.274129 -4.160015 -0.730866 -4.889252 8.737867 11.221365 -5.319399 3.242012 -6.261446 0.675660 -7.171693 -6.104528 1.575023 -2.200349 0.319722 
2.556525 -1.188885 0.837924 -3.274031 -1.171675 0.171513 0.699201 -6.498832 -1.270221 0.085840 5.897032 3.328424 3.740209 6.489707 -5.994098 1.854649 -2.774284 7.273302 -5.520234 1.976658 -17.747953 1.810770 -4.348070 21.201711 -0.344463 -1.727607 -1.522610 -7.193388 -11.383719 3.337151 9.603810 6.077171 -1.192282 5.825585 0.000002 -0.000002 11.651173 -0.000000 -0.000001 -0.000004 0.000003 -15.314129 -0.000001 -0.000003 -0.000000 -0.000001 -0.000003 -0.000000 -0.000003 0.000004 -9.202637 0.000001 -0.000003 2.115646 0.000001 0.000001 1.057824 -0.000003 0.000004 -3.091158 0.000002 0.000002 4.231292 0.000001 -0.000001 2.115647 -0.000001 0.000004 3.205522 0.000000 0.000001 6.411048 -0.000001 0.000001 3.205525 -2.224568 1.083464 11.648024 2.631176 -0.657822 -9.945167 -1.531303 3.955325 0.837701 -8.344868 -18.714770 -12.270002 -0.000001 -0.000003 0.000000 -0.000000 0.000000 -0.000000 0.000000 0.000000 0.000000 -0.000001 -0.000003 -0.000000 -0.000000 -0.000003 -0.000001 0.000000 0.000002 0.000000 -0.000003 -0.000002 -8.576566 -0.000003 -0.000003 -17.153129 -0.000002 -0.000003 -8.576567 -0.000004 -0.000003 -17.153127 -0.000005 -0.000004 -34.306234 -0.000002 -0.000003 -17.153129 -0.000005 -0.000007 -25.989584 -0.000009 -0.000005 -51.979140 -0.000001 -0.000004 -25.989584 -7.930872 6.101983 -6.899310 -4.743256 5.863028 2.751210 12.508631 -8.865685 5.593849 -1.262679 -4.162532 -0.719959 -4.871484 8.725069 11.172756 -5.626078 3.258415 -6.236190 0.958293 -7.143577 -6.084599 1.569240 -2.225557 0.308713 
2.556463 -1.189022 0.837919 -3.275388 -1.164148 0.180998 0.704274 -6.512059 -1.268403 0.087114 5.899438 3.336297 3.735963 6.476195 -5.967094 1.846983 -2.605155 7.254927 -5.517755 1.986683 -17.721551 1.802145 -4.383590 21.154930 -0.324810 -1.657644 -1.494442 -7.236258 -11.338095 3.358009 9.761557 6.089973 -1.267117 5.917789 -0.000002 -0.000002 11.835580 0.000000 -0.000001 -0.000004 -0.000001 -15.472711 0.000000 0.000001 -0.000000 0.000000 -0.000002 -0.000000 -0.000003 -0.000001 -9.315096 0.000002 0.000000 2.103234 0.000001 0.000002 1.051617 -0.000002 -0.000001 -3.157484 0.000002 -0.000001 4.206466 0.000000 0.000004 2.103237 -0.000001 0.000000 3.186719 0.000001 0.000000 6.373435 0.000002 0.000001 3.186719 -2.228206 1.082632 11.671674 2.641419 -0.702028 -9.929708 -1.535828 4.152738 0.777074 -8.425836 -18.605198 -12.138196 -0.000003 -0.000002 0.000001 -0.000000 0.000004 -0.000000 -0.000001 0.000004 0.000000 -0.000003 -0.000001 0.000001 0.000001 0.000004 0.000000 -0.000000 0.000002 0.000000 -0.000004 -0.000004 -8.997266 -0.000003 -0.000005 -17.994535 -0.000003 0.000000 -8.997271 -0.000005 -0.000005 -17.994540 -0.000006 -0.000003 -35.989073 -0.000002 -0.000004 -17.994545 -0.000006 -0.000008 -27.264452 -0.000007 -0.000006 -54.528863 -0.000005 -0.000004 -27.264450 -7.931837 6.107909 -6.905016 -4.755842 5.862748 2.739472 12.521151 -8.885150 5.613544 -1.261969 -4.153154 -0.720277 -4.899095 8.729621 11.164275 -5.566332 3.240114 -6.242421 0.857111 -7.225851 -6.217294 1.643959 -2.065752 0.402345 
2.556406 -1.189134 0.837925 -3.295467 -1.134390 0.192005 0.712280 -6.550478 -1.277094 0.088013 5.906717 3.370575 3.713842 6.438454 -5.927623 1.831769 -2.407884 7.157504 -5.513130 1.987316 -17.738980 1.779558 -4.290544 21.161526 -0.335684 -1.766266 -1.562722 -7.240449 -11.318433 3.393894 9.780338 6.029639 -1.310632 5.924552 -0.000000 0.000000 11.849107 0.000001 -0.000003 -0.000003 -0.000003 -15.532648 0.000003 -0.000001 0.000000 0.000002 -0.000001 -0.000000 -0.000003 -0.000003 -9.358134 0.000002 -0.000002 2.097468 0.000000 -0.000000 1.048735 -0.000002 -0.000002 -3.183631 0.000001 0.000001 4.194939 0.000002 0.000001 2.097469 -0.000001 -0.000001 3.177984 0.000000 0.000001 6.355970 -0.000003 0.000002 3.177987 -2.228187 1.054819 11.707929 2.651984 -0.652236 -9.962837 -1.572568 4.037499 0.818797 -8.416370 -18.737275 -12.278410 -0.000000 -0.000004 0.000000 -0.000001 0.000002 -0.000000 -0.000001 0.000003 -0.000001 -0.000003 -0.000005 0.000001 -0.000001 0.000000 -0.000001 -0.000001 -0.000000 -0.000000 -0.000003 -0.000006 -8.474643 -0.000002 -0.000001 -16.949277 -0.000004 -0.000002 -8.474639 -0.000005 -0.000007 -16.949278 -0.000005 -0.000007 -33.898557 -0.000004 -0.000003 -16.949289 -0.000007 -0.000009 -25.680731 -0.000008 -0.000007 -51.361428 -0.000002 -0.000004 -25.680731 -7.918848 6.104611 -6.921021 -4.717755 5.838981 2.733773 12.504502 -8.881140 5.606708 -1.273629 -4.143548 -0.732119 -4.861636 8.714031 11.148164 -5.462748 3.229458 -6.242391 0.808500 -7.161664 -6.206735 1.578495 -2.112469 0.347633 
2.556304 -1.189276 0.837943 -3.313787 -1.116435 0.203703 0.715096 -6.592074 -1.291233 0.085478 5.932760 3.432819 3.679101 6.446753 -5.934789 1.795484 -2.312861 7.083329 -5.515408 1.986799 -17.767617 1.802702 -4.320641 21.110177 -0.313595 -1.669262 -1.550537 -7.245650 -11.247470 3.315695 9.800695 6.100763 -1.281410 5.941220 -0.000001 -0.000002 11.882437 0.000001 -0.000003 -0.000000 -0.000003 -15.544121 0.000001 0.000001 0.000001 -0.000001 0.000004 0.000001 0.000002 -0.000001 -9.390944 0.000000 0.000002 2.047224 0.000001 0.000002 1.023614 0.000002 0.000000 -3.237778 0.000001 -0.000003 4.094451 -0.000000 0.000001 2.047227 0.000002 -0.000003 3.101853 0.000002 -0.000000 6.203711 -0.000000 0.000001 3.101857 -2.224182 1.047820 11.707517 2.644332 -0.698436 -9.941603 -1.581818 4.136055 0.780494 -8.314958 -18.830302 -12.092529 -0.000001 -0.000003 0.000000 0.000000 -0.000001 0.000000 0.000000 -0.000001 0.000000 -0.000001 -0.000004 -0.000000 0.000002 -0.000001 0.000000 0.000000 -0.000004 -0.000001 -0.000002 -0.000003 -9.218663 -0.000003 -0.000004 -18.437334 -0.000002 0.000001 -9.218659 -0.000004 -0.000006 -18.437329 -0.000007 -0.000005 -36.874644 -0.000001 -0.000003 -18.437334 -0.000006 -0.000009 -27.935334 -0.000008 -0.000007 -55.870643 -0.000004 -0.000005 -27.935341 -7.919775 6.121049 -6.936588 -4.693893 5.813036 2.727637 12.487799 -8.854911 5.625413 -1.231868 -4.135305 -0.694157 -4.177880 8.942637 11.015546 -6.513860 3.039891 -6.246001 1.097115 -7.040235 -6.075880 1.671826 -2.242974 0.368010 
